<?xml version="1.0" encoding="UTF-8"?>
<svg width="215px" height="29px" viewBox="0 0 215 29" version="1.1" xmlns="http://www.w3.org/2000/svg" xmlns:xlink="http://www.w3.org/1999/xlink">
    <title>Slice</title>
    <g id="Page-1" stroke="none" stroke-width="1" fill="none" fill-rule="evenodd">
        <g id="al_rating_2022_mobile" transform="translate(-0.028900, 0.000000)" fill="#EEBE28" fill-rule="nonzero">
            <polygon id="Path" points="36.8401 0 40.5457 8.1552 49.6559 9.0384 42.8639 15.3168 44.7599 24 36.8401 19.3872 28.9249 24 30.8209 15.3168 24.0289 9.0384 33.1393 8.1552"></polygon>
            <polygon id="Path" points="72.0579 0 75.7589 8.1552 84.8689 9.0384 78.0769 15.3168 79.9779 24 72.0579 19.3872 64.1379 24 66.0339 15.3168 59.2419 9.0384 68.3519 8.1552"></polygon>
            <polygon id="Path" points="107.2709 0 110.9759 8.1552 120.0869 9.0384 113.2949 15.3168 115.1909 24 107.2709 19.3872 99.3509 24 101.2519 15.3168 94.4549 9.0384 103.5699 8.1552"></polygon>
            <polygon id="Path" points="142.4829 0 146.1889 8.1552 155.2989 9.0384 148.5069 15.3168 150.4029 24 142.4829 19.3872 134.5629 24 136.4639 15.3168 129.6719 9.0384 138.7819 8.1552"></polygon>
            <path d="M177.7009,4.9728 L179.5299,9.0048 L180.0189,10.0848 L181.1999,10.2 L185.7459,10.6416 L182.3229,13.8048 L181.4589,14.6016 L181.7089,15.7536 L182.6069,19.8672 L178.7279,17.6064 L177.6909,17.0016 L176.6549,17.6064 L172.7759,19.8672 L173.6739,15.7536 L173.9229,14.6016 L173.0589,13.8048 L169.6369,10.6416 L174.1829,10.2 L175.3629,10.0848 L175.8529,9.0048 L177.7009,4.9728 Z M177.7009,0 L173.9999,8.1552 L164.8899,9.0384 L171.6819,15.3168 L169.7859,24 L177.7059,19.3872 L185.6259,24 L183.7299,15.3168 L190.5219,9.0384 L181.4109,8.1552 L177.7009,0 Z" id="Shape"></path>
            <polygon id="Path" points="181.1999 7.704 177.7009 0 173.9949 8.1552 164.8849 9.0384 171.6769 15.3168 169.7809 24 177.7009 19.3872 181.1999 21.4224"></polygon>
            <polygon id="Path" points="181.1999 7.704 177.7009 0 173.9949 8.1552 164.8849 9.0384 171.6769 15.3168 169.7809 24 177.7009 19.3872 181.1999 21.4224"></polygon>
        </g>
    </g>
</svg>