<svg width="132" height="32" viewBox="0 0 132 32" fill="none" xmlns="http://www.w3.org/2000/svg">
<path fill-rule="evenodd" clip-rule="evenodd" d="M114.763 0C124.059 0 131.009 6.85197 131.009 16.0025C131.009 25.1632 124.059 32 114.763 32C105.463 32 98.5146 25.1632 98.5146 16.0025C98.5146 6.85197 105.463 0 114.763 0ZM114.763 29.4409C122.569 29.4409 128.248 23.7833 128.248 16.0024C128.248 8.25362 122.569 2.56149 114.763 2.56149C106.957 2.56149 101.276 8.21906 101.276 16.0024C101.276 23.7833 106.957 29.4409 114.763 29.4409ZM110.352 9.34676V24.9776H105.689V11.2247C105.689 9.84407 106.225 9.34676 107.591 9.34676H110.352ZM123.84 24.9776H119.178V9.34676H121.933C123.298 9.34676 123.84 9.84407 123.84 11.2247V24.9776ZM117.108 7.31876V24.9776H112.411V8.75844C112.411 7.62221 112.226 7.4098 111.267 7.4098H111.016V5.43824H115.213C116.601 5.43824 117.108 5.91111 117.108 7.31876ZM43.2075 11.3461V25.3763H38.2538V12.7192C38.2538 11.9058 37.9054 11.5324 37.0804 11.5324H36.7971V9.75472H41.6173C42.6016 9.75472 43.2075 10.3464 43.2075 11.3461ZM40.4458 4.19263C42.2509 4.19263 43.3002 5.03806 43.3002 6.43559C43.3002 7.84999 42.2509 8.68699 40.4458 8.68699C38.6707 8.68699 37.5864 7.84999 37.5864 6.43559C37.5864 5.03806 38.6707 4.19263 40.4458 4.19263ZM6.67237 20.3468L5.14721 25.3764H0L5.5546 8.97012C5.88155 8.03534 5.97484 7.69312 5.97484 7.28516C5.97484 6.66225 5.52807 6.34532 4.70301 6.34532H4.03886V4.53392H11.9394C13.1479 4.53392 13.8454 5.0582 14.1638 6.19022L19.7133 25.3764H14.1279L12.7003 20.3468H6.67237ZM7.46582 16.9366H11.9395L9.84685 9.28392L7.46582 16.9366ZM26.1452 6.13038V25.3764H21.1666V7.50937C21.1666 6.69007 20.8183 6.34532 19.9949 6.34532H19.6765V4.53392H24.561C25.5478 4.53392 26.1452 5.12817 26.1452 6.13038ZM34.6139 25.3764V6.1304C34.6139 5.12818 34.0088 4.53394 33.0272 4.53394H28.1436V6.34534H28.4551C29.2836 6.34534 29.6319 6.69008 29.6319 7.50939V25.3764H34.6139ZM47.4137 14.226C49.0663 13.4446 50.8757 13.0063 52.3007 13.0063C53.6376 13.0063 54.1143 13.475 54.1143 14.8413V15.1903C52.0842 15.5063 51.45 15.6336 50.3048 15.8823C49.6449 16.0357 49.033 16.2211 48.4304 16.4732C46.4294 17.2638 45.4845 18.7852 45.4845 21.1277C45.4845 24.0955 46.7837 25.5302 49.4789 25.5302C50.4623 25.5302 51.3524 25.3447 52.1475 25.0354C52.8433 24.7311 53.2558 24.4757 54.2743 23.6935V23.9109C54.2743 24.8794 54.7784 25.3768 55.7653 25.3768H60.3014V23.6935H60.0771C59.2221 23.6935 58.9063 23.315 58.9063 22.3195V14.8784C58.9063 10.9117 57.5087 9.531 53.4758 9.531C52.1766 9.531 50.909 9.69453 49.6749 9.97437C48.4304 10.2517 47.7937 10.5029 46.3113 11.2236L47.4137 14.226ZM54.1145 17.8734V20.9103C53.286 21.7541 52.2753 22.2598 51.4202 22.2598C50.5267 22.2598 50.2135 21.8283 50.2135 20.6575C50.2135 19.501 50.4625 18.975 51.3526 18.6337C52.0176 18.3504 52.8752 18.1018 54.1145 17.8734ZM67.5263 14.8139V25.3764H62.5785V12.7193C62.5785 11.9059 62.2259 11.5325 61.4009 11.5325H61.115V9.75483H65.8154C66.8288 9.75483 67.3449 10.2521 67.3449 11.224V11.8478C69.1765 10.1603 70.5399 9.56939 72.4758 9.56939C73.7819 9.56939 74.797 9.93942 75.4637 10.6626C76.2597 11.5013 76.4428 12.2827 76.4428 14.7549V25.3764H71.4942V15.4781C71.4942 13.907 71.2434 13.4982 70.1924 13.4982C69.2081 13.4982 68.3548 13.907 67.5263 14.8139ZM91.1299 22.0961H84.2128L90.8141 12.9776V9.75261H80.4726C79.2984 9.75261 78.7592 10.2828 78.7592 11.4426V14.2815H80.5976V14.0025C80.5976 13.2852 80.9784 12.9413 81.7676 12.9413H85.3254L78.6616 22.161V25.3767H91.1299V22.0961Z" fill="#003781"/>
</svg>
