<svg width="40" height="40" viewBox="0 0 40 40" fill="none" xmlns="http://www.w3.org/2000/svg">
<rect x="0.5" y="0.5" width="39" height="39" rx="19.5" fill="#3DA556"/>
<rect x="0.5" y="0.5" width="39" height="39" rx="19.5" stroke="#3DA556"/>
<g clip-path="url(#clip0_555_671)">
<path fill-rule="evenodd" clip-rule="evenodd" d="M18.6387 31.9004H17.2321C15.8255 31.9004 14.4189 31.5021 13.3136 30.7054C12.2084 29.9087 11.3042 28.8133 10.9023 27.5187C10.9023 27.4191 10.8018 27.3195 10.8018 27.1203C10.6008 26.722 10.3999 26.3237 10.3999 25.4274V24.332C10.3999 23.7344 10.3999 23.1369 10.3999 22.4398V20.4481C10.3999 18.8548 11.3042 17.8589 12.4094 16.5643C14.4189 14.2739 15.4236 8.49793 15.4236 8.39834C15.5241 8.09959 15.725 8 16.0264 8C16.2274 8 18.0359 8.09959 18.8397 9.09544C19.8444 10.39 19.744 12.8797 18.6387 16.4647H23.361C26.1743 16.4647 27.6814 16.4647 27.8823 16.5643C28.9875 16.8631 29.6909 17.8589 29.5904 18.9544C29.4899 19.751 28.8871 20.5477 28.1838 20.8465C28.3847 21.1452 28.5856 21.444 28.6861 21.8423C28.8871 22.4398 28.7866 23.1369 28.3847 23.7344C27.9828 24.332 27.4804 24.6307 26.7771 24.7303C26.6766 24.7303 26.5762 24.7303 26.4757 24.7303C26.6766 25.029 26.8776 25.4274 26.8776 25.8257C26.9781 26.5228 26.7771 27.1203 26.3752 27.6183C25.9733 28.1162 25.27 28.4149 24.6672 28.4149C24.5667 28.4149 24.5667 28.4149 24.4662 28.4149C24.7676 28.8133 24.8681 29.3112 24.8681 29.8091C24.8681 31.0042 23.8634 32 22.6577 32C22.4567 32 22.2558 32 21.9544 32H21.2511L18.6387 31.9004ZM16.3279 8.99585C16.0264 10.4896 15.0217 15.0705 13.2132 17.1618C12.108 18.4564 11.4046 19.2531 11.4046 20.4481V22.4398C11.4046 23.1369 11.4046 23.7344 11.4046 24.332V25.4274C11.4046 26.1245 11.5051 26.4232 11.7061 26.8216C11.8065 26.9212 11.8065 27.1203 11.907 27.2199C12.3089 28.3154 13.0122 29.3112 13.9165 29.9087C14.8207 30.6058 16.0264 30.9046 17.2321 30.9046H21.8539C22.1553 30.9046 22.3563 30.9046 22.5572 30.9046C23.2605 30.9046 23.8634 30.3071 23.8634 29.7095C23.8634 29.0124 23.361 28.3154 22.5572 28.3154H21.3515C21.1506 28.3154 20.9496 28.2158 20.8492 28.0166C20.7487 27.8174 20.8492 27.6183 20.9496 27.5187C21.1506 27.3195 21.1506 27.3195 22.4567 27.4191C22.4567 27.4191 22.4567 27.4191 22.5572 27.4191H22.9591C23.562 27.4191 24.1648 27.4191 24.5667 27.4191C24.9686 27.4191 25.27 27.2199 25.5714 27.0207C25.7724 26.722 25.8729 26.4232 25.8729 26.0249C25.7724 25.527 25.3705 24.9295 24.7676 24.8299H22.2558C21.9544 24.8299 21.7534 24.6307 21.7534 24.332C21.7534 24.0332 21.9544 23.834 22.2558 23.834H24.5667C24.6672 23.834 24.7676 23.834 24.8681 23.834H26.2748C26.3752 23.834 26.5762 23.834 26.6766 23.834C27.0785 23.7344 27.38 23.5353 27.5809 23.2365C27.7819 22.9378 27.8823 22.5394 27.7819 22.2407C27.4804 21.5436 27.0785 20.9461 26.2748 20.9461H22.5572C22.2558 20.9461 22.0549 20.7469 22.0549 20.4481C22.0549 20.1494 22.2558 19.9502 22.5572 19.9502H24.7676C27.179 19.9502 27.2795 19.9502 27.38 19.9502C27.9828 19.8506 28.4852 19.4523 28.4852 18.8548C28.5856 18.2573 28.1838 17.6598 27.5809 17.5602C27.38 17.5602 25.1695 17.5602 23.361 17.5602H17.9354C17.7345 17.5602 17.5335 17.4606 17.4331 17.2614C17.4331 16.9627 17.4331 16.8631 17.5335 16.5643C18.9402 12.2822 18.5383 10.4896 17.9354 9.79253C17.634 9.29461 16.9307 9.09544 16.3279 8.99585Z" fill="white"/>
</g>
<defs>
<clipPath id="clip0_555_671">
<rect width="24" height="24" fill="white" transform="translate(8 8)"/>
</clipPath>
</defs>
</svg>
