<svg width="264" height="40" viewBox="0 0 264 40" fill="none" xmlns="http://www.w3.org/2000/svg">
<path fill-rule="evenodd" clip-rule="evenodd" d="M37.0391 16.0091C36.8725 15.4991 36.4191 15.1391 35.8858 15.0924L25.3441 14.1874L21.2291 4.4441C20.8091 3.45743 19.1908 3.45743 18.7708 4.4441L14.6541 14.1874L4.11413 15.0924C3.5808 15.1391 3.1258 15.4991 2.9608 16.0091C2.79413 16.5191 2.9508 17.0774 3.3558 17.4291L11.3491 24.3574L8.95246 34.6591C8.83246 35.1824 9.03413 35.7258 9.46913 36.0424C9.90413 36.3591 10.4841 36.3824 10.9408 36.1041L19.9991 30.6408L29.0591 36.1041C29.2708 36.2324 29.5091 36.2958 29.7475 36.2958C30.0225 36.2958 30.2975 36.2108 30.5308 36.0424C30.9641 35.7258 31.1675 35.1824 31.0458 34.6591L28.6508 24.3574L36.6441 17.4291C37.0491 17.0774 37.2058 16.5191 37.0391 16.0091Z" fill="#007AB3"/>
<path fill-rule="evenodd" clip-rule="evenodd" d="M93.0391 16.0091C92.8725 15.4991 92.4191 15.1391 91.8858 15.0924L81.3441 14.1874L77.2291 4.4441C76.8091 3.45743 75.1908 3.45743 74.7708 4.4441L70.6541 14.1874L60.1141 15.0924C59.5808 15.1391 59.1258 15.4991 58.9608 16.0091C58.7941 16.5191 58.9508 17.0774 59.3558 17.4291L67.3491 24.3574L64.9525 34.6591C64.8325 35.1824 65.0341 35.7258 65.4691 36.0424C65.9041 36.3591 66.4841 36.3824 66.9408 36.1041L75.9991 30.6408L85.0591 36.1041C85.2708 36.2324 85.5091 36.2958 85.7475 36.2958C86.0225 36.2958 86.2975 36.2108 86.5308 36.0424C86.9641 35.7258 87.1675 35.1824 87.0458 34.6591L84.6508 24.3574L92.6441 17.4291C93.0491 17.0774 93.2058 16.5191 93.0391 16.0091Z" fill="#007AB3"/>
<path fill-rule="evenodd" clip-rule="evenodd" d="M149.039 16.0091C148.872 15.4991 148.419 15.1391 147.886 15.0924L137.344 14.1874L133.229 4.4441C132.809 3.45743 131.191 3.45743 130.771 4.4441L126.654 14.1874L116.114 15.0924C115.581 15.1391 115.126 15.4991 114.961 16.0091C114.794 16.5191 114.951 17.0774 115.356 17.4291L123.349 24.3574L120.952 34.6591C120.832 35.1824 121.034 35.7258 121.469 36.0424C121.904 36.3591 122.484 36.3824 122.941 36.1041L131.999 30.6408L141.059 36.1041C141.271 36.2324 141.509 36.2958 141.747 36.2958C142.022 36.2958 142.297 36.2108 142.531 36.0424C142.964 35.7258 143.167 35.1824 143.046 34.6591L140.651 24.3574L148.644 17.4291C149.049 17.0774 149.206 16.5191 149.039 16.0091Z" fill="#007AB3"/>
<path fill-rule="evenodd" clip-rule="evenodd" d="M205.039 16.0091C204.872 15.4991 204.419 15.1391 203.886 15.0924L193.344 14.1874L189.229 4.4441C188.809 3.45743 187.191 3.45743 186.771 4.4441L182.654 14.1874L172.114 15.0924C171.581 15.1391 171.126 15.4991 170.961 16.0091C170.794 16.5191 170.951 17.0774 171.356 17.4291L179.349 24.3574L176.952 34.6591C176.832 35.1824 177.034 35.7258 177.469 36.0424C177.904 36.3591 178.484 36.3824 178.941 36.1041L187.999 30.6408L197.059 36.1041C197.271 36.2324 197.509 36.2958 197.747 36.2958C198.022 36.2958 198.297 36.2108 198.531 36.0424C198.964 35.7258 199.167 35.1824 199.046 34.6591L196.651 24.3574L204.644 17.4291C205.049 17.0774 205.206 16.5191 205.039 16.0091Z" fill="#007AB3"/>
<path fill-rule="evenodd" clip-rule="evenodd" d="M261.039 16.0091C260.872 15.4991 260.419 15.1391 259.886 15.0924L249.344 14.1874L245.229 4.4441C244.809 3.45743 243.191 3.45743 242.771 4.4441L238.654 14.1874L228.114 15.0924C227.581 15.1391 227.126 15.4991 226.961 16.0091C226.794 16.5191 226.951 17.0774 227.356 17.4291L235.349 24.3574L232.952 34.6591C232.832 35.1824 233.034 35.7258 233.469 36.0424C233.904 36.3591 234.484 36.3824 234.941 36.1041L243.999 30.6408L253.059 36.1041C253.271 36.2324 253.509 36.2958 253.747 36.2958C254.022 36.2958 254.297 36.2108 254.531 36.0424C254.964 35.7258 255.167 35.1824 255.046 34.6591L252.651 24.3574L260.644 17.4291C261.049 17.0774 261.206 16.5191 261.039 16.0091Z" fill="#007AB3"/>
</svg>
