<svg width="40" height="40" viewBox="0 0 40 40" fill="none" xmlns="http://www.w3.org/2000/svg">
<rect x="39.5" y="39.5" width="39" height="39" rx="19.5" transform="rotate(-180 39.5 39.5)" fill="#DC3149"/>
<rect x="39.5" y="39.5" width="39" height="39" rx="19.5" transform="rotate(-180 39.5 39.5)" stroke="#DC3149"/>
<g clip-path="url(#clip0_555_673)">
<path fill-rule="evenodd" clip-rule="evenodd" d="M21.3613 8.09958H22.7679C24.1745 8.09958 25.5811 8.49792 26.6864 9.29461C27.7916 10.0913 28.6958 11.1867 29.0977 12.4813C29.0977 12.5809 29.1982 12.6805 29.1982 12.8797C29.3992 13.278 29.6001 13.6763 29.6001 14.5726V15.668C29.6001 16.2656 29.6001 16.8631 29.6001 17.5602V19.5519C29.6001 21.1452 28.6958 22.1411 27.5906 23.4357C25.5811 25.7261 24.5764 31.5021 24.5764 31.6017C24.4759 31.9004 24.275 32 23.9736 32C23.7726 32 21.9641 31.9004 21.1603 30.9046C20.1556 29.61 20.256 27.1203 21.3613 23.5353L16.639 23.5353C13.8257 23.5353 12.3186 23.5353 12.1177 23.4357C11.0125 23.1369 10.3091 22.1411 10.4096 21.0456C10.5101 20.249 11.1129 19.4523 11.8162 19.1535C11.6153 18.8548 11.4144 18.556 11.3139 18.1577C11.1129 17.5602 11.2134 16.8631 11.6153 16.2656C12.0172 15.668 12.5196 15.3693 13.2229 15.2697C13.3234 15.2697 13.4238 15.2697 13.5243 15.2697C13.3234 14.971 13.1224 14.5726 13.1224 14.1743C13.0219 13.4772 13.2229 12.8797 13.6248 12.3817C14.0267 11.8838 14.73 11.5851 15.3328 11.5851C15.4333 11.5851 15.4333 11.5851 15.5338 11.5851C15.2324 11.1867 15.1319 10.6888 15.1319 10.1909C15.1319 8.99585 16.1366 8 17.3423 8C17.5433 8 17.7442 8 18.0456 8H18.7489L21.3613 8.09958ZM23.6721 31.0041C23.9736 29.5104 24.9783 24.9295 26.7868 22.8382C27.892 21.5436 28.5954 20.7469 28.5954 19.5519L28.5954 17.5602C28.5954 16.8631 28.5954 16.2656 28.5954 15.668V14.5726C28.5954 13.8755 28.4949 13.5768 28.2939 13.1784C28.1935 13.0788 28.1935 12.8797 28.093 12.7801C27.6911 11.6846 26.9878 10.6888 26.0835 10.0913C25.1793 9.39419 23.9736 9.09543 22.7679 9.09543H18.1461C17.8447 9.09543 17.6437 9.09543 17.4428 9.09543C16.7395 9.09543 16.1366 9.69294 16.1366 10.2905C16.1366 10.9876 16.639 11.6846 17.4428 11.6846H18.6485C18.8494 11.6846 19.0504 11.7842 19.1508 11.9834C19.2513 12.1826 19.1508 12.3817 19.0504 12.4813C18.8494 12.6805 18.8494 12.6805 17.5433 12.5809C17.5433 12.5809 17.5433 12.5809 17.4428 12.5809H17.0409C16.438 12.5809 15.8352 12.5809 15.4333 12.5809C15.0314 12.5809 14.73 12.7801 14.4286 12.9793C14.2276 13.278 14.1271 13.5768 14.1271 13.9751C14.2276 14.473 14.6295 15.0705 15.2324 15.1701H17.7442C18.0456 15.1701 18.2466 15.3693 18.2466 15.668C18.2466 15.9668 18.0456 16.166 17.7442 16.166L15.4333 16.166C15.3328 16.166 15.2324 16.166 15.1319 16.166H13.7252C13.6248 16.166 13.4238 16.166 13.3234 16.166C12.9215 16.2656 12.62 16.4647 12.4191 16.7635C12.2181 17.0622 12.1177 17.4606 12.2181 17.7593C12.5196 18.4564 12.9215 19.0539 13.7252 19.0539H17.4428C17.7442 19.0539 17.9451 19.2531 17.9451 19.5519C17.9451 19.8506 17.7442 20.0498 17.4428 20.0498H15.2324C12.821 20.0498 12.7205 20.0498 12.62 20.0498C12.0172 20.1494 11.5148 20.5477 11.5148 21.1452C11.4144 21.7427 11.8162 22.3402 12.4191 22.4398C12.62 22.4398 14.8305 22.4398 16.639 22.4398L22.0646 22.4398C22.2655 22.4398 22.4665 22.5394 22.5669 22.7386C22.5669 23.0373 22.5669 23.1369 22.4665 23.4357C21.0598 27.7178 21.4617 29.5104 22.0646 30.2075C22.366 30.7054 23.0693 30.9046 23.6721 31.0041Z" fill="white"/>
</g>
<defs>
<clipPath id="clip0_555_673">
<rect width="24" height="24" fill="white" transform="matrix(-1 0 0 -1 32 32)"/>
</clipPath>
</defs>
</svg>
