<svg width="264" height="40" viewBox="0 0 264 40" fill="none" xmlns="http://www.w3.org/2000/svg">
<path fill-rule="evenodd" clip-rule="evenodd" d="M37.0391 16.0091C36.8725 15.4991 36.4191 15.1391 35.8858 15.0924L25.3441 14.1874L21.2291 4.4441C20.8091 3.45743 19.1908 3.45743 18.7708 4.4441L14.6541 14.1874L4.11413 15.0924C3.5808 15.1391 3.1258 15.4991 2.9608 16.0091C2.79413 16.5191 2.9508 17.0774 3.3558 17.4291L11.3491 24.3574L8.95246 34.6591C8.83246 35.1824 9.03413 35.7258 9.46913 36.0424C9.90413 36.3591 10.4841 36.3824 10.9408 36.1041L19.9991 30.6408L29.0591 36.1041C29.2708 36.2324 29.5091 36.2958 29.7475 36.2958C30.0225 36.2958 30.2975 36.2108 30.5308 36.0424C30.9641 35.7258 31.1675 35.1824 31.0458 34.6591L28.6508 24.3574L36.6441 17.4291C37.0491 17.0774 37.2058 16.5191 37.0391 16.0091Z" fill="#007AB3"/>
<path fill-rule="evenodd" clip-rule="evenodd" d="M93.0391 16.0091C92.8725 15.4991 92.4191 15.1391 91.8858 15.0924L81.3441 14.1874L77.2291 4.4441C76.8091 3.45743 75.1908 3.45743 74.7708 4.4441L70.6541 14.1874L60.1141 15.0924C59.5808 15.1391 59.1258 15.4991 58.9608 16.0091C58.7941 16.5191 58.9508 17.0774 59.3558 17.4291L67.3491 24.3574L64.9525 34.6591C64.8325 35.1824 65.0341 35.7258 65.4691 36.0424C65.9041 36.3591 66.4841 36.3824 66.9408 36.1041L75.9991 30.6408L85.0591 36.1041C85.2708 36.2324 85.5091 36.2958 85.7475 36.2958C86.0225 36.2958 86.2975 36.2108 86.5308 36.0424C86.9641 35.7258 87.1675 35.1824 87.0458 34.6591L84.6508 24.3574L92.6441 17.4291C93.0491 17.0774 93.2058 16.5191 93.0391 16.0091Z" fill="#007AB3"/>
<path fill-rule="evenodd" clip-rule="evenodd" d="M149.039 16.0091C148.872 15.4991 148.419 15.1391 147.886 15.0924L137.344 14.1874L133.229 4.4441C132.809 3.45743 131.191 3.45743 130.771 4.4441L126.654 14.1874L116.114 15.0924C115.581 15.1391 115.126 15.4991 114.961 16.0091C114.794 16.5191 114.951 17.0774 115.356 17.4291L123.349 24.3574L120.952 34.6591C120.832 35.1824 121.034 35.7258 121.469 36.0424C121.904 36.3591 122.484 36.3824 122.941 36.1041L131.999 30.6408L141.059 36.1041C141.271 36.2324 141.509 36.2958 141.747 36.2958C142.022 36.2958 142.297 36.2108 142.531 36.0424C142.964 35.7258 143.167 35.1824 143.046 34.6591L140.651 24.3574L148.644 17.4291C149.049 17.0774 149.206 16.5191 149.039 16.0091Z" fill="#007AB3"/>
<path fill-rule="evenodd" clip-rule="evenodd" d="M188 27.7879C188.238 27.7879 188.476 27.8512 188.688 27.9795L195.735 32.2279L193.87 24.2145C193.758 23.7329 193.923 23.2295 194.296 22.9045L200.515 17.5162L192.316 16.8129C191.823 16.7712 191.395 16.4595 191.201 16.0045L188 8.42621L184.798 16.0045C184.605 16.4595 184.176 16.7712 183.683 16.8129L175.485 17.5162L181.703 22.9045C182.076 23.2295 182.241 23.7329 182.13 24.2145L180.265 32.2279L187.311 27.9795C187.523 27.8512 187.761 27.7879 188 27.7879ZM197.748 36.3329C197.51 36.3329 197.27 36.2695 197.06 36.1412L188 30.6779L178.94 36.1412C178.486 36.4195 177.903 36.3962 177.47 36.0795C177.035 35.7629 176.833 35.2195 176.953 34.6979L179.35 24.3945L171.356 17.4662C170.951 17.1145 170.795 16.5562 170.96 16.0462C171.126 15.5362 171.58 15.1762 172.115 15.1295L182.655 14.2245L186.771 4.48121C187.191 3.49454 188.808 3.49454 189.228 4.48121L193.345 14.2245L203.885 15.1295C204.42 15.1762 204.873 15.5362 205.04 16.0462C205.205 16.5562 205.048 17.1145 204.643 17.4662L196.65 24.3945L199.046 34.6979C199.166 35.2195 198.965 35.7629 198.53 36.0795C198.298 36.2479 198.023 36.3329 197.748 36.3329Z" fill="#007AB3"/>
<path fill-rule="evenodd" clip-rule="evenodd" d="M244 27.7879C244.238 27.7879 244.476 27.8512 244.688 27.9795L251.735 32.2279L249.87 24.2145C249.758 23.7329 249.923 23.2295 250.296 22.9045L256.515 17.5162L248.316 16.8129C247.823 16.7712 247.395 16.4595 247.201 16.0045L244 8.42621L240.798 16.0045C240.605 16.4595 240.176 16.7712 239.683 16.8129L231.485 17.5162L237.703 22.9045C238.076 23.2295 238.241 23.7329 238.13 24.2145L236.265 32.2279L243.311 27.9795C243.523 27.8512 243.761 27.7879 244 27.7879ZM253.748 36.3329C253.51 36.3329 253.27 36.2695 253.06 36.1412L244 30.6779L234.94 36.1412C234.486 36.4195 233.903 36.3962 233.47 36.0795C233.035 35.7629 232.833 35.2195 232.953 34.6979L235.35 24.3945L227.356 17.4662C226.951 17.1145 226.795 16.5562 226.96 16.0462C227.126 15.5362 227.58 15.1762 228.115 15.1295L238.655 14.2245L242.771 4.48121C243.191 3.49454 244.808 3.49454 245.228 4.48121L249.345 14.2245L259.885 15.1295C260.42 15.1762 260.873 15.5362 261.04 16.0462C261.205 16.5562 261.048 17.1145 260.643 17.4662L252.65 24.3945L255.046 34.6979C255.166 35.2195 254.965 35.7629 254.53 36.0795C254.298 36.2479 254.023 36.3329 253.748 36.3329Z" fill="#007AB3"/>
</svg>
