<svg width="40" height="40" viewBox="0 0 40 40" fill="none" xmlns="http://www.w3.org/2000/svg">
<rect x="39.5" y="0.5" width="39" height="39" rx="19.5" transform="rotate(90 39.5 0.5)" fill="#EFBE25"/>
<rect x="39.5" y="0.5" width="39" height="39" rx="19.5" transform="rotate(90 39.5 0.5)" stroke="#EFBE25"/>
<g clip-path="url(#clip0_555_672)">
<path fill-rule="evenodd" clip-rule="evenodd" d="M8.09958 18.6387V17.2321C8.09958 15.8255 8.49792 14.4189 9.29461 13.3136C10.0913 12.2084 11.1867 11.3042 12.4813 10.9023C12.5809 10.9023 12.6805 10.8018 12.8797 10.8018C13.278 10.6008 13.6763 10.3999 14.5726 10.3999H15.668C16.2656 10.3999 16.8631 10.3999 17.5602 10.3999H19.5519C21.1452 10.3999 22.1411 11.3042 23.4357 12.4094C25.7261 14.4189 31.5021 15.4236 31.6017 15.4236C31.9004 15.5241 32 15.725 32 16.0264C32 16.2274 31.9004 18.0359 30.9046 18.8397C29.61 19.8444 27.1203 19.744 23.5353 18.6387V23.361C23.5353 26.1743 23.5353 27.6814 23.4357 27.8823C23.1369 28.9875 22.1411 29.6909 21.0456 29.5904C20.249 29.4899 19.4523 28.8871 19.1535 28.1838C18.8548 28.3847 18.556 28.5856 18.1577 28.6861C17.5602 28.8871 16.8631 28.7866 16.2656 28.3847C15.668 27.9828 15.3693 27.4804 15.2697 26.7771C15.2697 26.6766 15.2697 26.5762 15.2697 26.4757C14.971 26.6766 14.5726 26.8776 14.1743 26.8776C13.4772 26.9781 12.8797 26.7771 12.3817 26.3752C11.8838 25.9733 11.5851 25.27 11.5851 24.6672C11.5851 24.5667 11.5851 24.5667 11.5851 24.4662C11.1867 24.7676 10.6888 24.8681 10.1909 24.8681C8.99585 24.8681 8 23.8634 8 22.6577C8 22.4567 8 22.2558 8 21.9544V21.2511L8.09958 18.6387ZM31.0041 16.3279C29.5104 16.0264 24.9295 15.0217 22.8382 13.2132C21.5436 12.108 20.7469 11.4046 19.5519 11.4046L17.5602 11.4046C16.8631 11.4046 16.2656 11.4046 15.668 11.4046H14.5726C13.8755 11.4046 13.5768 11.5051 13.1784 11.7061C13.0788 11.8065 12.8797 11.8065 12.7801 11.907C11.6846 12.3089 10.6888 13.0122 10.0913 13.9165C9.39419 14.8207 9.09543 16.0264 9.09543 17.2321L9.09543 21.8539C9.09543 22.1553 9.09543 22.3563 9.09543 22.5572C9.09543 23.2605 9.69294 23.8634 10.2905 23.8634C10.9876 23.8634 11.6846 23.361 11.6846 22.5572V21.3515C11.6846 21.1506 11.7842 20.9496 11.9834 20.8492C12.1826 20.7487 12.3817 20.8492 12.4813 20.9496C12.6805 21.1506 12.6805 21.1506 12.5809 22.4567C12.5809 22.4567 12.5809 22.4567 12.5809 22.5572V22.9591C12.5809 23.562 12.5809 24.1648 12.5809 24.5667C12.5809 24.9686 12.7801 25.27 12.9793 25.5714C13.278 25.7724 13.5768 25.8729 13.9751 25.8729C14.473 25.7724 15.0705 25.3705 15.1701 24.7676V22.2558C15.1701 21.9544 15.3693 21.7534 15.668 21.7534C15.9668 21.7534 16.166 21.9544 16.166 22.2558V24.5667C16.166 24.6672 16.166 24.7676 16.166 24.8681L16.166 26.2748C16.166 26.3752 16.166 26.5762 16.166 26.6766C16.2656 27.0785 16.4647 27.38 16.7635 27.5809C17.0622 27.7819 17.4606 27.8823 17.7593 27.7819C18.4564 27.4804 19.0539 27.0785 19.0539 26.2748L19.0539 22.5572C19.0539 22.2558 19.2531 22.0549 19.5519 22.0549C19.8506 22.0549 20.0498 22.2558 20.0498 22.5572V24.7676C20.0498 27.179 20.0498 27.2795 20.0498 27.38C20.1494 27.9828 20.5477 28.4852 21.1452 28.4852C21.7427 28.5856 22.3402 28.1838 22.4398 27.5809C22.4398 27.38 22.4398 25.1695 22.4398 23.361V17.9354C22.4398 17.7345 22.5394 17.5335 22.7386 17.4331C23.0373 17.4331 23.1369 17.4331 23.4357 17.5335C27.7178 18.9402 29.5104 18.5383 30.2075 17.9354C30.7054 17.634 30.9046 16.9307 31.0041 16.3279Z" fill="white"/>
</g>
<defs>
<clipPath id="clip0_555_672">
<rect width="24" height="24" fill="white" transform="matrix(0 1 -1 0 32 8)"/>
</clipPath>
</defs>
</svg>
