<?xml version="1.0" encoding="UTF-8"?>
<svg width="32px" height="32px" viewBox="0 0 32 32" version="1.1" xmlns="http://www.w3.org/2000/svg" xmlns:xlink="http://www.w3.org/1999/xlink">
    <g id="allianz-logo" stroke="none" stroke-width="1" fill="none" fill-rule="evenodd">
        <path d="M32,16.0025349 C32,6.852218 25.1554458,2.27373675e-13 16.0015193,2.27373675e-13 C6.84303485,2.27373675e-13 0,6.852218 0,16.0025349 C0,25.1634981 6.84303485,32 16.0015193,32 C25.1554458,32 32,25.1634981 32,16.0025349 L32,16.0025349 Z M29.2819295,16.0025349 C29.2819295,23.7835234 23.6882854,29.4408112 16.0015193,29.4408112 C8.31475327,29.4408112 2.71908334,23.7835234 2.71908334,16.0025349 C2.71908334,8.21901141 8.31475327,2.5617237 16.0015193,2.5617237 C23.6882854,2.5617237 29.2819295,8.2539924 29.2819295,16.0025349 L29.2819295,16.0025349 Z M11.6577723,24.9779468 L11.6577723,9.34651458 L8.93868895,9.34651458 C7.59358086,9.34651458 7.06485614,9.84435995 7.06485614,11.2248416 L7.06485614,24.9779468 L11.6577723,24.9779468 Z M20.3488114,24.9779468 L24.9397018,24.9779468 L24.9397018,11.2248416 C24.9397018,9.84435995 24.407432,9.34651458 23.0608046,9.34651458 L20.3488114,9.34651458 L20.3488114,24.9779468 Z M18.3108917,24.9779468 L18.3108917,7.31863118 C18.3108917,5.9112801 17.8105276,5.4382763 16.444149,5.4382763 L12.311588,5.4382763 L12.311588,7.40988593 L12.5587314,7.40988593 C13.5022315,7.40988593 13.6845504,7.62230672 13.6845504,8.75842839 L13.6845504,24.9779468 L18.3108917,24.9779468 L18.3108917,24.9779468 Z" id="allianz-logo" fill="#003781" fill-rule="nonzero"></path>
    </g>
</svg>